<?xml version="1.0" encoding="UTF-8" standalone="no"?>
<svg width="180px" height="30px" viewBox="0 0 180 30" version="1.1" xmlns="http://www.w3.org/2000/svg" xmlns:xlink="http://www.w3.org/1999/xlink">
    <!-- Generator: Sketch 42 (36781) - http://www.bohemiancoding.com/sketch -->
    <title>dtr</title>
    <desc>Created with Sketch.</desc>
    <defs></defs>
    <g id="Blind-whale" stroke="none" stroke-width="1" fill="none" fill-rule="evenodd">
        <g id="dtr" fill="#FFFFFF">
            <path d="M50.1938477,18.4046875 C50.1938477,17.9593728 50.1088062,17.5403503 49.9387207,17.1476074 C49.7686352,16.7548646 49.5367039,16.4100601 49.2429199,16.1131836 C48.9491359,15.8163071 48.6043314,15.5812834 48.2084961,15.4081055 C47.8126608,15.2349275 47.3889997,15.1483398 46.9375,15.1483398 C46.4798154,15.1483398 46.0530619,15.2349275 45.6572266,15.4081055 C45.2613913,15.5812834 44.918133,15.8147609 44.6274414,16.1085449 C44.3367498,16.4023289 44.1063648,16.7471334 43.9362793,17.1429688 C43.7661938,17.5388041 43.6811523,17.9593728 43.6811523,18.4046875 C43.6811523,18.8500022 43.7661938,19.2705709 43.9362793,19.6664063 C44.1063648,20.0622416 44.3367498,20.4070461 44.6274414,20.7008301 C44.918133,20.9946141 45.2613913,21.2280916 45.6572266,21.4012695 C46.0530619,21.5744475 46.4798154,21.6610352 46.9375,21.6610352 C47.3889997,21.6610352 47.8126608,21.5744475 48.2084961,21.4012695 C48.6043314,21.2280916 48.9491359,20.9930679 49.2429199,20.6961914 C49.5367039,20.3993149 49.7686352,20.0545104 49.9387207,19.6617676 C50.1088062,19.2690247 50.1938477,18.8500022 50.1938477,18.4046875 Z M46.9375,13.209375 C48.1683004,13.209375 49.2537388,13.5897423 50.1938477,14.3504883 L50.1938477,9.72109375 C50.1938477,9.44277205 50.285074,9.21238698 50.4675293,9.02993164 C50.6499846,8.8474763 50.8803697,8.75625 51.1586914,8.75625 C51.4308282,8.75625 51.6612132,8.8474763 51.8498535,9.02993164 C52.0384938,9.21238698 52.1328125,9.44277205 52.1328125,9.72109375 L52.1328125,18.4046875 C52.1328125,19.8519604 51.6256561,21.0765575 50.6113281,22.0785156 C49.5846303,23.0928436 48.3600332,23.6 46.9375,23.6 C45.502597,23.6 44.2779999,23.0928436 43.2636719,22.0785156 C42.2493439,21.0641876 41.7421875,19.8395905 41.7421875,18.4046875 C41.7421875,16.9697845 42.2493439,15.7451874 43.2636719,14.7308594 C44.2779999,13.7165314 45.502597,13.209375 46.9375,13.209375 Z M63.6278125,18.4046875 C63.6278125,19.8519604 63.1206561,21.0765575 62.1063281,22.0785156 C61.0796303,23.0928436 59.8550332,23.6 58.4325,23.6 C56.997597,23.6 55.7729999,23.0928436 54.7586719,22.0785156 C53.7443439,21.0641876 53.2371875,19.8395905 53.2371875,18.4046875 C53.2371875,16.9697845 53.7443439,15.7451874 54.7586719,14.7308594 C55.7729999,13.7165314 56.997597,13.209375 58.4325,13.209375 C59.8550332,13.209375 61.0796303,13.7165314 62.1063281,14.7308594 C62.6134921,15.2380234 62.9923132,15.7977508 63.2428027,16.4100586 C63.4932923,17.0223663 63.6216276,17.687236 63.6278125,18.4046875 Z M58.4325,15.1483398 C57.9748154,15.1483398 57.5480619,15.2349275 57.1522266,15.4081055 C56.7563913,15.5812834 56.413133,15.8147609 56.1224414,16.1085449 C55.8317499,16.4023289 55.6013648,16.7471334 55.4312793,17.1429688 C55.2611938,17.5388041 55.1761523,17.9593728 55.1761523,18.4046875 C55.1761523,18.8500022 55.2611938,19.2705709 55.4312793,19.6664063 C55.6013648,20.0622416 55.8317499,20.4070461 56.1224414,20.7008301 C56.413133,20.9946141 56.7563913,21.2280916 57.1522266,21.4012695 C57.5480619,21.5744475 57.9748154,21.6610352 58.4325,21.6610352 C58.8839997,21.6610352 59.3076608,21.5744475 59.7034961,21.4012695 C60.0993314,21.2280916 60.4441359,20.9930679 60.7379199,20.6961914 C61.0317039,20.3993149 61.2636352,20.0545104 61.4337207,19.6617676 C61.6038062,19.2690247 61.6888477,18.8500022 61.6888477,18.4046875 C61.6888477,17.9593728 61.6038062,17.5403503 61.4337207,17.1476074 C61.2636352,16.7548646 61.0317039,16.4100601 60.7379199,16.1131836 C60.4441359,15.8163071 60.0993314,15.5812834 59.7034961,15.4081055 C59.3076608,15.2349275 58.8839997,15.1483398 58.4325,15.1483398 Z M72.6364844,20.659082 C72.9148061,20.659082 73.1451912,20.7503083 73.3276465,20.9327637 C73.5101018,21.115219 73.6013281,21.3456041 73.6013281,21.6239258 C73.6013281,21.8960626 73.4992784,22.1341787 73.2951758,22.3382813 C72.3365121,23.1794313 71.2077799,23.6 69.9089453,23.6 C68.4740423,23.6 67.2494452,23.0928436 66.2351172,22.0785156 C65.2207892,21.0641876 64.7136328,19.8395905 64.7136328,18.4046875 C64.7136328,16.9697845 65.2207892,15.7451874 66.2351172,14.7308594 C67.2494452,13.7165314 68.4740423,13.209375 69.9089453,13.209375 C71.2139649,13.209375 72.3426971,13.6299437 73.2951758,14.4710938 C73.5178332,14.6690114 73.6291602,14.9133123 73.6291602,15.2040039 C73.6291602,15.4823256 73.5379339,15.7142569 73.3554785,15.8998047 C73.1730232,16.0853525 72.9426381,16.178125 72.6643164,16.178125 C72.4292892,16.178125 72.2190048,16.103907 72.033457,15.9554688 C71.7180258,15.6895169 71.3871372,15.4885098 71.0407813,15.3524414 C70.6944254,15.216373 70.3171505,15.1483398 69.9089453,15.1483398 C69.4574457,15.1483398 69.0337845,15.2333813 68.6379492,15.4034668 C68.2421139,15.5735523 67.8957632,15.8054836 67.5988867,16.0992676 C67.3020102,16.3930516 67.0685328,16.7378561 66.8984473,17.1336914 C66.7283618,17.5295267 66.6433203,17.9531878 66.6433203,18.4046875 C66.6433203,18.8561872 66.7283618,19.2798483 66.8984473,19.6756836 C67.0685328,20.0715189 67.3020102,20.4163234 67.5988867,20.7101074 C67.8957632,21.0038914 68.2421139,21.2358227 68.6379492,21.4059082 C69.0337845,21.5759937 69.4574457,21.6610352 69.9089453,21.6610352 C70.3171505,21.6610352 70.6944254,21.5945482 71.0407813,21.4615723 C71.3871372,21.3285963 71.7149334,21.1291354 72.0241797,20.8631836 C72.1973576,20.7333001 72.4014572,20.665267 72.6364844,20.659082 Z M74.7242578,22.6258789 L74.7242578,9.73037109 C74.7242578,9.45823432 74.8185765,9.22784925 75.0072168,9.03920898 C75.1958571,8.85056872 75.4262421,8.75625 75.6983789,8.75625 C75.9643308,8.75625 76.1916234,8.85056872 76.3802637,9.03920898 C76.568904,9.22784925 76.6632227,9.45823432 76.6632227,9.73037109 L76.6632227,16.9666992 L82.2110742,13.3578125 C82.3656974,13.2588537 82.5388728,13.209375 82.7306055,13.209375 C82.8666739,13.209375 82.993463,13.2341143 83.1109766,13.2835938 C83.2284902,13.3330732 83.3305399,13.4026525 83.4171289,13.492334 C83.5037179,13.5820154 83.5732973,13.6856114 83.6258692,13.803125 C83.678441,13.9206386 83.7047266,14.0443353 83.7047266,14.1742188 C83.7047266,14.5205746 83.5810299,14.7772453 83.3336328,14.9442383 L79.4464258,17.4676758 L83.4356836,21.9579102 C83.6150465,22.1558278 83.7047266,22.3815743 83.7047266,22.6351563 C83.7047266,22.7650397 83.678441,22.8887364 83.6258692,23.00625 C83.5732973,23.1237636 83.5037179,23.2273596 83.4171289,23.317041 C83.3305399,23.4067225 83.2284902,23.4763018 83.1109766,23.5257813 C82.993463,23.5752607 82.8666739,23.6 82.7306055,23.6 C82.4708386,23.6 82.2543694,23.5165047 82.0811914,23.3495117 L77.7950586,18.5345703 L76.6632227,19.2767578 L76.6632227,22.6258789 C76.6632227,22.8918308 76.568904,23.1206696 76.3802637,23.3124023 C76.1916234,23.5041351 75.9643308,23.6 75.6983789,23.6 C75.4262421,23.6 75.1958571,23.5041351 75.0072168,23.3124023 C74.8185765,23.1206696 74.7242578,22.8918308 74.7242578,22.6258789 Z M93.0752149,17.4398438 C92.9700711,17.0996728 92.813904,16.7888849 92.606709,16.5074707 C92.399514,16.2260565 92.1583054,15.984848 91.8830762,15.7838379 C91.607847,15.5828278 91.3047901,15.4266607 90.9738965,15.315332 C90.6430029,15.2040033 90.3012908,15.1483398 89.94875,15.1483398 C89.5962092,15.1483398 89.2529509,15.2040033 88.9189649,15.315332 C88.5849788,15.4266607 88.2788295,15.5828278 88.0005078,15.7838379 C87.7221861,15.984848 87.4809776,16.2260565 87.276875,16.5074707 C87.0727724,16.7888849 86.921244,17.0996728 86.8222852,17.4398438 L93.0752149,17.4398438 Z M92.6577344,20.6776367 C92.9360561,20.6776367 93.1664412,20.768863 93.3488965,20.9513184 C93.5313518,21.1337737 93.6225781,21.3641588 93.6225781,21.6424805 C93.6225781,21.9146172 93.5298056,22.1465485 93.3442578,22.3382813 C92.3855942,23.1794313 91.2537696,23.6 89.94875,23.6 C88.513847,23.6 87.2892499,23.0928436 86.2749219,22.0785156 C85.2605939,21.0641876 84.7534375,19.8395905 84.7534375,18.4046875 C84.7534375,16.9697845 85.2605939,15.7451874 86.2749219,14.7308594 C87.2892499,13.7165314 88.513847,13.209375 89.94875,13.209375 C91.3712832,13.209375 92.5958803,13.7165314 93.6225781,14.7308594 C94.1297421,15.2318384 94.5101094,15.7900197 94.7636914,16.4054199 C95.0172734,17.0208201 95.1440625,17.687236 95.1440625,18.4046875 C95.1440625,18.6830092 95.0497438,18.9133943 94.8611035,19.0958496 C94.6724633,19.2783049 94.4420782,19.3695313 94.1699414,19.3695313 L86.8222852,19.3695313 C86.9274289,19.7097022 87.0820498,20.0204901 87.2861524,20.3019043 C87.4902549,20.5833185 87.7299173,20.824527 88.0051465,21.0255371 C88.2803757,21.2265472 88.5834326,21.3827143 88.9143262,21.494043 C89.2452198,21.6053717 89.5900243,21.6610352 89.94875,21.6610352 C90.3569552,21.6610352 90.7311376,21.5991868 91.0713086,21.4754883 C91.4114796,21.3517897 91.7269061,21.1662447 92.0175977,20.9188477 C92.2031455,20.7642245 92.4165223,20.6838216 92.6577344,20.6776367 Z M98.150293,14.1742188 L98.150293,14.3597656 C98.6141625,13.98867 99.1182265,13.7041677 99.6625,13.50625 C100.206774,13.3083323 100.788148,13.209375 101.406641,13.209375 C101.678777,13.209375 101.971011,13.2279295 102.28335,13.2650391 C102.595688,13.3021486 102.883283,13.3686356 103.146143,13.464502 C103.409002,13.5603683 103.627017,13.691796 103.800195,13.8587891 C103.973373,14.0257821 104.059961,14.2422513 104.059961,14.5082031 C104.059961,14.6442715 104.033675,14.7710606 103.981104,14.8885742 C103.928532,15.0060878 103.858952,15.1096838 103.772363,15.1993652 C103.685774,15.2890467 103.583725,15.3586261 103.466211,15.4081055 C103.348697,15.4575849 103.221908,15.4823242 103.08584,15.4823242 C102.968326,15.4823242 102.83226,15.4483076 102.677637,15.3802734 C102.287986,15.2256503 101.864325,15.1483398 101.406641,15.1483398 C100.955141,15.1483398 100.53148,15.2333813 100.135645,15.4034668 C99.7398092,15.5735523 99.3950047,15.8054836 99.1012207,16.0992676 C98.8074367,16.3930516 98.5755054,16.7378561 98.4054199,17.1336914 C98.2353345,17.5295267 98.150293,17.9531878 98.150293,18.4046875 L98.150293,22.6351563 C98.150293,22.9011081 98.0559743,23.1284007 97.867334,23.317041 C97.6786937,23.5056813 97.4514011,23.6 97.1854492,23.6 C96.9133125,23.6 96.6829274,23.5056813 96.4942871,23.317041 C96.3056469,23.1284007 96.2113281,22.9011081 96.2113281,22.6351563 L96.2113281,14.1742188 C96.2113281,13.9082669 96.3056469,13.6809743 96.4942871,13.492334 C96.6829274,13.3036937 96.9133125,13.209375 97.1854492,13.209375 C97.4514011,13.209375 97.6786937,13.3036937 97.867334,13.492334 C98.0559743,13.6809743 98.150293,13.9082669 98.150293,14.1742188 Z" id="docker"></path>
            <path d="M110.651367,13.609375 L111.087402,13.609375 L111.087402,10.1210938 C111.087402,9.8551419 111.181721,9.62784925 111.370361,9.43920898 C111.559002,9.25056872 111.789387,9.15625 112.061523,9.15625 C112.327475,9.15625 112.554768,9.25056872 112.743408,9.43920898 C112.932048,9.62784925 113.026367,9.8551419 113.026367,10.1210938 L113.026367,13.609375 L114.186035,13.609375 C114.451987,13.609375 114.677733,13.7036937 114.863281,13.892334 C115.048829,14.0809743 115.141602,14.3082669 115.141602,14.5742188 C115.141602,14.8463555 115.048829,15.0767406 114.863281,15.2653809 C114.677733,15.4540211 114.451987,15.5483398 114.186035,15.5483398 L113.026367,15.5483398 L113.026367,20.2148438 C113.026367,21.4456442 113.644851,22.0610352 114.881836,22.0610352 C115.147788,22.0610352 115.373534,22.1553539 115.559082,22.3439941 C115.74463,22.5326344 115.837402,22.7599271 115.837402,23.0258789 C115.837402,23.2980157 115.74463,23.5284007 115.559082,23.717041 C115.373534,23.9056813 115.147788,24 114.881836,24 C112.352201,24 111.087402,22.7382939 111.087402,20.2148438 L111.087402,15.5483398 L110.651367,15.5483398 C110.3916,15.5483398 110.1674,15.4540211 109.97876,15.2653809 C109.790119,15.0767406 109.695801,14.8463555 109.695801,14.5742188 C109.695801,14.3082669 109.790119,14.0809743 109.97876,13.892334 C110.1674,13.7036937 110.3916,13.609375 110.651367,13.609375 Z M118.685918,14.5742188 L118.685918,14.7597656 C119.149787,14.38867 119.653851,14.1041677 120.198125,13.90625 C120.742399,13.7083323 121.323773,13.609375 121.942266,13.609375 C122.214402,13.609375 122.506636,13.6279295 122.818975,13.6650391 C123.131313,13.7021486 123.418908,13.7686356 123.681768,13.864502 C123.944627,13.9603683 124.162642,14.091796 124.33582,14.2587891 C124.508998,14.4257821 124.595586,14.6422513 124.595586,14.9082031 C124.595586,15.0442715 124.5693,15.1710606 124.516729,15.2885742 C124.464157,15.4060878 124.394577,15.5096838 124.307988,15.5993652 C124.221399,15.6890467 124.11935,15.7586261 124.001836,15.8081055 C123.884322,15.8575849 123.757533,15.8823242 123.621465,15.8823242 C123.503951,15.8823242 123.367885,15.8483076 123.213262,15.7802734 C122.823611,15.6256503 122.39995,15.5483398 121.942266,15.5483398 C121.490766,15.5483398 121.067105,15.6333813 120.67127,15.8034668 C120.275434,15.9735523 119.93063,16.2054836 119.636846,16.4992676 C119.343062,16.7930516 119.11113,17.1378561 118.941045,17.5336914 C118.770959,17.9295267 118.685918,18.3531878 118.685918,18.8046875 L118.685918,23.0351562 C118.685918,23.3011081 118.591599,23.5284007 118.402959,23.717041 C118.214319,23.9056813 117.987026,24 117.721074,24 C117.448937,24 117.218552,23.9056813 117.029912,23.717041 C116.841272,23.5284007 116.746953,23.3011081 116.746953,23.0351562 L116.746953,14.5742188 C116.746953,14.3082669 116.841272,14.0809743 117.029912,13.892334 C117.218552,13.7036937 117.448937,13.609375 117.721074,13.609375 C117.987026,13.609375 118.214319,13.7036937 118.402959,13.892334 C118.591599,14.0809743 118.685918,14.3082669 118.685918,14.5742188 Z M130.505625,15.5483398 C130.04794,15.5483398 129.621187,15.6349275 129.225352,15.8081055 C128.829516,15.9812834 128.486258,16.2147609 128.195566,16.5085449 C127.904875,16.8023289 127.67449,17.1471334 127.504404,17.5429688 C127.334319,17.9388041 127.249277,18.3593728 127.249277,18.8046875 C127.249277,19.2500022 127.334319,19.6705709 127.504404,20.0664062 C127.67449,20.4622416 127.904875,20.8070461 128.195566,21.1008301 C128.486258,21.3946141 128.829516,21.6280916 129.225352,21.8012695 C129.621187,21.9744475 130.04794,22.0610352 130.505625,22.0610352 C130.957125,22.0610352 131.380786,21.9744475 131.776621,21.8012695 C132.172456,21.6280916 132.517261,21.3930679 132.811045,21.0961914 C133.104829,20.7993149 133.33676,20.4545104 133.506846,20.0617676 C133.676931,19.6690247 133.761973,19.2500022 133.761973,18.8046875 C133.761973,18.3593728 133.676931,17.9403503 133.506846,17.5476074 C133.33676,17.1548646 133.104829,16.8100601 132.811045,16.5131836 C132.517261,16.2163071 132.172456,15.9812834 131.776621,15.8081055 C131.380786,15.6349275 130.957125,15.5483398 130.505625,15.5483398 Z M133.761973,23.0351562 L133.761973,22.8496094 C133.298103,23.220705 132.794039,23.5052073 132.249766,23.703125 C131.705492,23.9010427 131.124118,24 130.505625,24 C129.070722,24 127.846125,23.4928436 126.831797,22.4785156 C125.817469,21.4641876 125.310313,20.2395905 125.310313,18.8046875 C125.310313,17.3697845 125.817469,16.1451874 126.831797,15.1308594 C127.846125,14.1165314 129.070722,13.609375 130.505625,13.609375 C131.928158,13.609375 133.152755,14.1165314 134.179453,15.1308594 C135.193781,16.1451874 135.700938,17.3697845 135.700938,18.8046875 L135.700938,23.0351562 C135.700938,23.3011081 135.606619,23.5284007 135.417979,23.717041 C135.229338,23.9056813 135.002046,24 134.736094,24 C134.463957,24 134.233572,23.9056813 134.044932,23.717041 C133.856291,23.5284007 133.761973,23.3011081 133.761973,23.0351562 Z M139.430801,11.7631836 C139.430801,12.0786149 139.319474,12.3476551 139.096816,12.5703125 C138.874159,12.7929699 138.605119,12.9042969 138.289688,12.9042969 C137.974256,12.9042969 137.705216,12.7929699 137.482559,12.5703125 C137.259901,12.3476551 137.148574,12.0786149 137.148574,11.7631836 C137.148574,11.4477523 137.259901,11.1787121 137.482559,10.9560547 C137.705216,10.7333973 137.974256,10.6220703 138.289688,10.6220703 C138.605119,10.6220703 138.874159,10.7333973 139.096816,10.9560547 C139.319474,11.1787121 139.430801,11.4477523 139.430801,11.7631836 Z M137.324844,23.0258789 L137.324844,14.5834961 C137.324844,14.3113593 137.419162,14.0809743 137.607803,13.892334 C137.796443,13.7036937 138.023736,13.609375 138.289688,13.609375 C138.555639,13.609375 138.782932,13.7036937 138.971572,13.892334 C139.160213,14.0809743 139.257624,14.3113593 139.263809,14.5834961 L139.263809,23.0258789 C139.257624,23.2980157 139.160213,23.5284007 138.971572,23.717041 C138.782932,23.9056813 138.555639,24 138.289688,24 C138.023736,24 137.796443,23.9056813 137.607803,23.717041 C137.419162,23.5284007 137.324844,23.2980157 137.324844,23.0258789 Z M142.808125,14.5649414 C143.63072,13.927894 144.598647,13.609375 145.711934,13.609375 C146.361351,13.609375 146.978288,13.7361641 147.562764,13.9897461 C148.147239,14.2433281 148.662127,14.5881326 149.107441,15.0241699 C149.552756,15.4602073 149.905292,15.9735485 150.165059,16.564209 C150.424826,17.1548695 150.554707,17.7841763 150.554707,18.4521484 L150.554707,23.0258789 C150.554707,23.2980157 150.460388,23.5284007 150.271748,23.717041 C150.083108,23.9056813 149.855815,24 149.589863,24 C149.317727,24 149.087341,23.9056813 148.898701,23.717041 C148.710061,23.5284007 148.615742,23.2980157 148.615742,23.0258789 L148.615742,18.4521484 C148.615742,18.0563131 148.538432,17.6821307 148.383809,17.3295898 C148.229185,16.977049 148.020447,16.6693535 147.757588,16.4064941 C147.494729,16.1436348 147.187033,15.9348966 146.834492,15.7802734 C146.481951,15.6256503 146.107769,15.5483398 145.711934,15.5483398 C145.309913,15.5483398 144.934185,15.6241041 144.584736,15.7756348 C144.235288,15.9271655 143.927592,16.1359036 143.661641,16.4018555 C143.395689,16.6678073 143.186951,16.977049 143.03542,17.3295898 C142.883889,17.6821307 142.808125,18.0563131 142.808125,18.4521484 L142.808125,23.0258789 C142.808125,23.2980157 142.713806,23.5284007 142.525166,23.717041 C142.336526,23.9056813 142.109233,24 141.843281,24 C141.571144,24 141.340759,23.9056813 141.152119,23.717041 C140.963479,23.5284007 140.86916,23.2980157 140.86916,23.0258789 L140.86916,14.5834961 C140.86916,14.3175442 140.963479,14.0887054 141.152119,13.8969727 C141.340759,13.7052399 141.571144,13.609375 141.843281,13.609375 C142.109233,13.609375 142.336526,13.7052399 142.525166,13.8969727 C142.713806,14.0887054 142.808125,14.3113594 142.808125,14.5649414 Z M154.256738,11.7631836 C154.256738,12.0786149 154.145411,12.3476551 153.922754,12.5703125 C153.700097,12.7929699 153.431056,12.9042969 153.115625,12.9042969 C152.800194,12.9042969 152.531153,12.7929699 152.308496,12.5703125 C152.085839,12.3476551 151.974512,12.0786149 151.974512,11.7631836 C151.974512,11.4477523 152.085839,11.1787121 152.308496,10.9560547 C152.531153,10.7333973 152.800194,10.6220703 153.115625,10.6220703 C153.431056,10.6220703 153.700097,10.7333973 153.922754,10.9560547 C154.145411,11.1787121 154.256738,11.4477523 154.256738,11.7631836 Z M152.150781,23.0258789 L152.150781,14.5834961 C152.150781,14.3113593 152.2451,14.0809743 152.43374,13.892334 C152.622381,13.7036937 152.849673,13.609375 153.115625,13.609375 C153.381577,13.609375 153.60887,13.7036937 153.79751,13.892334 C153.98615,14.0809743 154.083561,14.3113593 154.089746,14.5834961 L154.089746,23.0258789 C154.083561,23.2980157 153.98615,23.5284007 153.79751,23.717041 C153.60887,23.9056813 153.381577,24 153.115625,24 C152.849673,24 152.622381,23.9056813 152.43374,23.717041 C152.2451,23.5284007 152.150781,23.2980157 152.150781,23.0258789 Z M157.634063,14.5649414 C158.456658,13.927894 159.424584,13.609375 160.537871,13.609375 C161.187288,13.609375 161.804226,13.7361641 162.388701,13.9897461 C162.973177,14.2433281 163.488064,14.5881326 163.933379,15.0241699 C164.378694,15.4602073 164.731229,15.9735485 164.990996,16.564209 C165.250763,17.1548695 165.380645,17.7841763 165.380645,18.4521484 L165.380645,23.0258789 C165.380645,23.2980157 165.286326,23.5284007 165.097686,23.717041 C164.909045,23.9056813 164.681753,24 164.415801,24 C164.143664,24 163.913279,23.9056813 163.724639,23.717041 C163.535998,23.5284007 163.44168,23.2980157 163.44168,23.0258789 L163.44168,18.4521484 C163.44168,18.0563131 163.364369,17.6821307 163.209746,17.3295898 C163.055123,16.977049 162.846385,16.6693535 162.583525,16.4064941 C162.320666,16.1436348 162.012971,15.9348966 161.66043,15.7802734 C161.307889,15.6256503 160.933706,15.5483398 160.537871,15.5483398 C160.135851,15.5483398 159.760122,15.6241041 159.410674,15.7756348 C159.061225,15.9271655 158.75353,16.1359036 158.487578,16.4018555 C158.221626,16.6678073 158.012888,16.977049 157.861357,17.3295898 C157.709827,17.6821307 157.634063,18.0563131 157.634063,18.4521484 L157.634063,23.0258789 C157.634063,23.2980157 157.539744,23.5284007 157.351104,23.717041 C157.162463,23.9056813 156.935171,24 156.669219,24 C156.397082,24 156.166697,23.9056813 155.978057,23.717041 C155.789416,23.5284007 155.695098,23.2980157 155.695098,23.0258789 L155.695098,14.5834961 C155.695098,14.3175442 155.789416,14.0887054 155.978057,13.8969727 C156.166697,13.7052399 156.397082,13.609375 156.669219,13.609375 C156.935171,13.609375 157.162463,13.7052399 157.351104,13.8969727 C157.539744,14.0887054 157.634063,14.3113594 157.634063,14.5649414 Z M171.6525,15.5483398 C171.194815,15.5483398 170.768062,15.6349275 170.372227,15.8081055 C169.976391,15.9812834 169.633133,16.2147609 169.342441,16.5085449 C169.05175,16.8023289 168.821365,17.1471334 168.651279,17.5429688 C168.481194,17.9388041 168.396152,18.3593728 168.396152,18.8046875 C168.396152,19.2500022 168.481194,19.6705709 168.651279,20.0664062 C168.821365,20.4622416 169.05175,20.8070461 169.342441,21.1008301 C169.633133,21.3946141 169.976391,21.6280916 170.372227,21.8012695 C170.768062,21.9744475 171.194815,22.0610352 171.6525,22.0610352 C172.104,22.0610352 172.527661,21.9744475 172.923496,21.8012695 C173.319331,21.6280916 173.664136,21.3930679 173.95792,21.0961914 C174.251704,20.7993149 174.483635,20.4545104 174.653721,20.0617676 C174.823806,19.6690247 174.908848,19.2500022 174.908848,18.8046875 C174.908848,18.3593728 174.823806,17.9403503 174.653721,17.5476074 C174.483635,17.1548646 174.251704,16.8100601 173.95792,16.5131836 C173.664136,16.2163071 173.319331,15.9812834 172.923496,15.8081055 C172.527661,15.6349275 172.104,15.5483398 171.6525,15.5483398 Z M174.908848,22.8588867 C173.981109,23.6196327 172.89567,24 171.6525,24 C170.217597,24 168.993,23.4928436 167.978672,22.4785156 C166.964344,21.4641876 166.457188,20.2395905 166.457188,18.8046875 C166.457188,17.3697845 166.964344,16.1451874 167.978672,15.1308594 C168.993,14.1165314 170.217597,13.609375 171.6525,13.609375 C173.075033,13.609375 174.29963,14.1165314 175.326328,15.1308594 C176.340656,16.1451874 176.847813,17.3697845 176.847813,18.8046875 L176.847813,23.9628906 C176.847813,24.4082054 176.779779,24.8287741 176.643711,25.2246094 C176.507643,25.6204447 176.319005,25.9838037 176.077793,26.3146973 C175.836581,26.6455908 175.552078,26.9440091 175.224277,27.2099609 C174.896476,27.4759128 174.542395,27.700113 174.162022,27.8825684 C173.781649,28.0650237 173.384273,28.2057287 172.969883,28.3046875 C172.555493,28.4036463 172.141109,28.453125 171.726719,28.453125 C171.231925,28.453125 170.746415,28.3897305 170.270176,28.2629395 C169.793936,28.1361485 169.342444,27.9490572 168.915684,27.7016602 C168.488924,27.4542631 168.097733,27.1481138 167.7421,26.7832031 C167.386466,26.4182924 167.084956,26.0100934 166.837559,25.5585938 C166.7386,25.4163404 166.689121,25.2431651 166.689121,25.0390625 C166.689121,24.7607408 166.781894,24.5303557 166.967441,24.3479004 C167.152989,24.1654451 167.384921,24.0742188 167.663242,24.0742188 C167.84879,24.0742188 168.001865,24.1175126 168.122471,24.2041016 C168.243077,24.2906905 168.408521,24.4824204 168.618809,24.7792969 C168.829096,25.0761734 169.014641,25.3019198 169.175449,25.456543 C169.880531,26.1616246 170.730946,26.5141602 171.726719,26.5141602 C172.728677,26.5141602 173.575999,26.1678095 174.268711,25.4750977 C174.695471,24.9555638 174.908848,24.4514998 174.908848,23.9628906 L174.908848,22.8588867 Z" id="training" opacity="0.699999988"></path>
            <path d="M37.2114674,11.9008887 C36.4018592,11.3391362 34.5465072,11.128479 33.0959592,11.4093552 C32.9272908,10.0049739 32.1514163,8.77614015 30.8020694,7.68774458 L30.0261949,7.12599203 L29.4864561,7.93351132 C28.8117826,8.98679735 28.4744459,10.4613978 28.5756469,11.8657792 C28.6093806,12.3573127 28.778049,13.235051 29.2840541,14.0074608 C28.8117826,14.2883371 27.8335061,14.6394324 26.5516265,14.6394324 L2.16218026,14.6394324 L2.09471291,14.9203087 C1.85857719,16.32469 1.85857719,20.7133819 4.62473845,24.0838972 C6.71622623,26.6468932 9.81972423,27.9459459 13.9014988,27.9459459 C22.7397213,27.9459459 29.2840541,23.6976923 32.3538184,16.0087042 C33.5682306,16.0438138 36.1657235,16.0087042 37.4813368,13.3754892 C37.5150705,13.3052701 37.5825378,13.1648319 37.8186736,12.6381889 L37.9536082,12.3573127 L37.2114674,11.9008887 L37.2114674,11.9008887 Z M21.6602438,2 L17.9495396,2 L17.9495396,5.51095344 L21.6602438,5.51095344 L21.6602438,2 L21.6602438,2 Z M21.6602438,6.21314413 L17.9495396,6.21314413 L17.9495396,9.72409758 L21.6602438,9.72409758 L21.6602438,6.21314413 L21.6602438,6.21314413 Z M17.2748662,6.21314413 L13.564162,6.21314413 L13.564162,9.72409758 L17.2748662,9.72409758 L17.2748662,6.21314413 L17.2748662,6.21314413 Z M12.8894886,6.21314413 L9.17878443,6.21314413 L9.17878443,9.72409758 L12.8894886,9.72409758 L12.8894886,6.21314413 L12.8894886,6.21314413 Z M8.50411095,10.4262883 L4.79340682,10.4262883 L4.79340682,13.9372417 L8.50411095,13.9372417 L8.50411095,10.4262883 L8.50411095,10.4262883 Z M12.8894886,10.4262883 L9.17878443,10.4262883 L9.17878443,13.9372417 L12.8894886,13.9372417 L12.8894886,10.4262883 L12.8894886,10.4262883 Z M17.2748662,10.4262883 L13.564162,10.4262883 L13.564162,13.9372417 L17.2748662,13.9372417 L17.2748662,10.4262883 L17.2748662,10.4262883 Z M21.6602438,10.4262883 L17.9495396,10.4262883 L17.9495396,13.9372417 L21.6602438,13.9372417 L21.6602438,10.4262883 L21.6602438,10.4262883 Z M26.0456214,10.4262883 L22.3349172,10.4262883 L22.3349172,13.9372417 L26.0456214,13.9372417 L26.0456214,10.4262883 L26.0456214,10.4262883 Z" id="Shape"></path>
        </g>
    </g>
</svg>